<svg width="47.500000" height="47.500000" viewBox="0 0 47.5 47.5" fill="none" xmlns="http://www.w3.org/2000/svg" xmlns:xlink="http://www.w3.org/1999/xlink">
	<desc>
			Created with Pixso.
	</desc>
	<defs/>
	<path id="↳ Icon Color" d="M3.33 3.33C0 6.67 0 12.05 0 22.8L0 24.7C0 35.44 0 40.82 3.33 44.16C6.67 47.5 12.05 47.5 22.8 47.5L24.7 47.5C35.44 47.5 40.82 47.5 44.16 44.16C47.5 40.82 47.5 35.44 47.5 24.7L47.5 22.8C47.5 12.05 47.5 6.67 44.16 3.33C40.82 0 35.44 0 24.7 0L22.8 0C12.05 0 6.67 0 3.33 3.33ZM8 14.5C8.25 26.83 14.41 34.25 25.22 34.25L25.83 34.25L25.83 27.19C29.8 27.58 32.81 30.49 34.01 34.25L39.62 34.25C38.08 28.63 34.03 25.53 31.5 24.34C34.03 22.88 37.59 19.32 38.43 14.5L33.34 14.5C32.23 18.41 28.95 21.97 25.83 22.3L25.83 14.5L20.74 14.5L20.74 28.18C17.58 27.38 13.59 23.55 13.41 14.5L8 14.5Z" fill="#2C2C2C" fill-opacity="1.000000" fill-rule="evenodd"/>
</svg>
