<svg width="50.000000" height="47.698486" viewBox="0 0 50 47.6985" fill="none" xmlns="http://www.w3.org/2000/svg" xmlns:xlink="http://www.w3.org/1999/xlink">
	<desc>
			Created with Pixso.
	</desc>
	<defs/>
	<path id="Shape" d="M50 23.84C50 37.02 38.8 47.69 25 47.69C11.19 47.69 0 37.02 0 23.84C0 10.67 11.19 0 25 0C38.8 0 50 10.67 50 23.84ZM16.74 21.66C14.23 22.7 11.66 23.77 9.31 25.01C8.08 25.87 9.71 26.48 11.24 27.05C11.49 27.14 11.73 27.23 11.95 27.32C12.14 27.37 12.33 27.43 12.53 27.49C14.23 28.01 16.13 28.58 17.79 27.71C20.5 26.23 23.07 24.5 25.63 22.78C26.47 22.22 27.31 21.66 28.15 21.1C28.19 21.08 28.24 21.05 28.29 21.02C29 20.57 30.62 19.57 30.02 20.95C28.61 22.43 27.09 23.74 25.57 25.05C24.54 25.94 23.51 26.82 22.51 27.77C21.63 28.45 20.72 29.82 21.7 30.77C23.96 32.28 26.26 33.75 28.55 35.22C29.3 35.7 30.04 36.18 30.79 36.66C32.05 37.62 34.02 36.84 34.3 35.34C34.43 34.65 34.55 33.96 34.67 33.27C35.36 29.45 36.04 25.62 36.65 21.79C36.73 21.19 36.82 20.59 36.92 19.99C37.14 18.53 37.37 17.07 37.44 15.6C37.26 14.14 35.4 14.46 34.37 14.79C29.05 16.72 23.78 18.8 18.54 20.91C17.94 21.16 17.34 21.41 16.74 21.66Z" fill="#2C2C2C" fill-opacity="1.000000" fill-rule="evenodd"/>
</svg>
